<svg width="450" height="108" viewBox="0 0 450 108" fill="none" xmlns="http://www.w3.org/2000/svg">
<g filter="url(#filter0_dd)">
<rect x="4" width="442" height="100" rx="25" fill="#EFEFEF"/>
</g>
<path d="M68.136 82.576C63.624 82.576 60 81.16 57.264 78.328C54.576 75.496 53.232 71.608 53.232 66.664V38.152C53.232 32.008 54.456 27.376 56.904 24.256C59.352 21.136 63.192 19.576 68.424 19.576C72.984 19.576 76.656 20.824 79.44 23.32C82.224 25.816 83.616 29.416 83.616 34.12V44.776H71.304V35.632C71.304 33.856 71.088 32.632 70.656 31.96C70.224 31.288 69.48 30.952 68.424 30.952C67.32 30.952 66.552 31.336 66.12 32.104C65.736 32.872 65.544 34 65.544 35.488V66.52C65.544 68.152 65.784 69.352 66.264 70.12C66.744 70.84 67.464 71.2 68.424 71.2C70.344 71.2 71.304 69.64 71.304 66.52V55.36H83.76V67.024C83.76 77.392 78.552 82.576 68.136 82.576ZM97.7736 82.576C93.8376 82.576 91.1256 81.4 89.6376 79.048C88.1976 76.696 87.4776 73.192 87.4776 68.536V29.296H100.15V66.016C100.15 66.352 100.15 67.264 100.15 68.752C100.15 70.192 100.366 71.224 100.798 71.848C101.278 72.424 101.998 72.712 102.958 72.712C104.254 72.712 105.07 72.184 105.406 71.128C105.742 70.024 105.91 68.464 105.91 66.448V66.016L105.982 29.296H118.51V82H105.91V76.384C105.046 78.592 104.038 80.176 102.886 81.136C101.734 82.096 100.03 82.576 97.7736 82.576ZM123.551 29.296H136.151V35.128C136.775 33.064 137.855 31.48 139.391 30.376C140.975 29.224 142.919 28.648 145.223 28.648V39.16C143.447 39.16 141.479 39.424 139.319 39.952C137.207 40.432 136.151 41.008 136.151 41.68V82H123.551V29.296ZM163.061 82.576C157.637 82.576 153.749 81.088 151.397 78.112C149.045 75.136 147.869 70.696 147.869 64.792V43.624C147.869 38.776 149.261 35.08 152.045 32.536C154.829 29.992 158.717 28.72 163.709 28.72C173.837 28.72 178.901 33.688 178.901 43.624V47.44C178.901 51.28 178.853 54.4 178.757 56.8H160.469V67.024C160.469 68.848 160.661 70.288 161.045 71.344C161.429 72.352 162.245 72.856 163.493 72.856C164.453 72.856 165.125 72.568 165.509 71.992C165.941 71.416 166.181 70.768 166.229 70.048C166.325 69.28 166.373 68.176 166.373 66.736V61.624H178.901V64.648C178.901 70.792 177.701 75.328 175.301 78.256C172.949 81.136 168.869 82.576 163.061 82.576ZM166.373 50.536V43.768C166.373 39.976 165.437 38.08 163.565 38.08C161.453 38.08 160.397 39.976 160.397 43.768V50.536H166.373ZM215.237 82.576C209.621 82.576 205.565 81.184 203.069 78.4C200.573 75.616 199.325 71.128 199.325 64.936V58.888H211.493V66.592C211.493 69.664 212.477 71.2 214.445 71.2C215.549 71.2 216.317 70.888 216.749 70.264C217.181 69.592 217.397 68.488 217.397 66.952C217.397 64.936 217.157 63.28 216.677 61.984C216.197 60.64 215.573 59.536 214.805 58.672C214.085 57.76 212.765 56.368 210.845 54.496L205.517 49.168C201.389 45.136 199.325 40.672 199.325 35.776C199.325 30.496 200.525 26.488 202.925 23.752C205.373 20.968 208.925 19.576 213.581 19.576C219.149 19.576 223.157 21.064 225.605 24.04C228.053 26.968 229.277 31.576 229.277 37.864H216.677L216.605 33.616C216.605 32.8 216.365 32.152 215.885 31.672C215.453 31.192 214.829 30.952 214.013 30.952C213.053 30.952 212.333 31.216 211.853 31.744C211.373 32.272 211.133 32.992 211.133 33.904C211.133 35.92 212.285 38.008 214.589 40.168L221.789 47.08C223.469 48.712 224.861 50.272 225.965 51.76C227.069 53.2 227.957 54.928 228.629 56.944C229.301 58.912 229.637 61.264 229.637 64C229.637 70.096 228.509 74.728 226.253 77.896C224.045 81.016 220.373 82.576 215.237 82.576ZM248.28 82.576C242.856 82.576 238.968 81.088 236.616 78.112C234.264 75.136 233.088 70.696 233.088 64.792V43.624C233.088 38.776 234.48 35.08 237.264 32.536C240.048 29.992 243.936 28.72 248.928 28.72C259.056 28.72 264.12 33.688 264.12 43.624V47.44C264.12 51.28 264.072 54.4 263.976 56.8H245.688V67.024C245.688 68.848 245.88 70.288 246.264 71.344C246.648 72.352 247.464 72.856 248.712 72.856C249.672 72.856 250.344 72.568 250.728 71.992C251.16 71.416 251.4 70.768 251.448 70.048C251.544 69.28 251.592 68.176 251.592 66.736V61.624H264.12V64.648C264.12 70.792 262.92 75.328 260.52 78.256C258.168 81.136 254.088 82.576 248.28 82.576ZM251.592 50.536V43.768C251.592 39.976 250.656 38.08 248.784 38.08C246.672 38.08 245.616 39.976 245.616 43.768V50.536H251.592ZM278.252 82.576C274.172 82.576 271.364 81.232 269.828 78.544C268.34 75.808 267.596 71.92 267.596 66.88C267.596 62.752 268.124 59.584 269.18 57.376C270.284 55.168 271.796 53.56 273.716 52.552C275.636 51.496 278.564 50.344 282.5 49.096L285.956 47.944V47.8V42.544C285.956 41.152 285.668 40.096 285.092 39.376C284.564 38.608 283.916 38.224 283.148 38.224C282.476 38.224 281.876 38.536 281.348 39.16C280.868 39.784 280.628 40.624 280.628 41.68V44.848H268.388V43.12C268.388 37.936 269.588 34.24 271.988 32.032C274.436 29.824 278.396 28.72 283.868 28.72C288.236 28.72 291.788 29.872 294.524 32.176C297.26 34.432 298.628 37.648 298.628 41.824V82H286.1V75.736C285.476 77.896 284.468 79.576 283.076 80.776C281.732 81.976 280.124 82.576 278.252 82.576ZM283.22 72.784C284.18 72.784 284.852 72.4 285.236 71.632C285.668 70.816 285.884 69.832 285.884 68.68V53.992C284.012 54.712 282.62 55.624 281.708 56.728C280.844 57.832 280.412 59.368 280.412 61.336V68.104C280.412 71.224 281.348 72.784 283.22 72.784ZM303.481 29.296H316.081V35.128C316.705 33.064 317.785 31.48 319.321 30.376C320.905 29.224 322.849 28.648 325.153 28.648V39.16C323.377 39.16 321.409 39.424 319.249 39.952C317.137 40.432 316.081 41.008 316.081 41.68V82H303.481V29.296ZM344.071 82.576C338.311 82.576 334.159 81.112 331.615 78.184C329.071 75.256 327.799 70.768 327.799 64.72V48.448C327.799 43.888 328.279 40.192 329.239 37.36C330.247 34.48 331.903 32.32 334.207 30.88C336.559 29.44 339.799 28.72 343.927 28.72C348.439 28.72 352.111 29.896 354.943 32.248C357.775 34.6 359.191 37.888 359.191 42.112V50.176H346.375V42.76C346.375 41.368 346.183 40.312 345.799 39.592C345.415 38.824 344.671 38.44 343.567 38.44C341.503 38.44 340.471 39.904 340.471 42.832V68.392C340.471 69.592 340.711 70.624 341.191 71.488C341.719 72.304 342.487 72.712 343.495 72.712C344.503 72.712 345.247 72.304 345.727 71.488C346.255 70.672 346.495 69.616 346.447 68.32L346.375 59.464H359.191V68.68C359.191 73 357.775 76.408 354.943 78.904C352.159 81.352 348.535 82.576 344.071 82.576ZM363.598 19.792H376.558V34.48C377.902 30.64 380.47 28.72 384.262 28.72C387.814 28.72 390.502 29.848 392.326 32.104C394.15 34.36 395.062 37.456 395.062 41.392V82H382.462V42.184C382.462 41.032 382.198 40.096 381.67 39.376C381.142 38.656 380.374 38.296 379.366 38.296C378.502 38.296 377.806 38.68 377.278 39.448C376.798 40.168 376.558 41.056 376.558 42.112V82H363.598V19.792Z" fill="#1A181B"/>
<defs>
<filter id="filter0_dd" x="0" y="0" width="450" height="108" filterUnits="userSpaceOnUse" color-interpolation-filters="sRGB">
<feFlood flood-opacity="0" result="BackgroundImageFix"/>
<feColorMatrix in="SourceAlpha" type="matrix" values="0 0 0 0 0 0 0 0 0 0 0 0 0 0 0 0 0 0 127 0"/>
<feOffset dy="4"/>
<feGaussianBlur stdDeviation="2"/>
<feColorMatrix type="matrix" values="0 0 0 0 0 0 0 0 0 0 0 0 0 0 0 0 0 0 0.25 0"/>
<feBlend mode="normal" in2="BackgroundImageFix" result="effect1_dropShadow"/>
<feColorMatrix in="SourceAlpha" type="matrix" values="0 0 0 0 0 0 0 0 0 0 0 0 0 0 0 0 0 0 127 0"/>
<feOffset dy="4"/>
<feGaussianBlur stdDeviation="2"/>
<feColorMatrix type="matrix" values="0 0 0 0 0 0 0 0 0 0 0 0 0 0 0 0 0 0 0.25 0"/>
<feBlend mode="normal" in2="effect1_dropShadow" result="effect2_dropShadow"/>
<feBlend mode="normal" in="SourceGraphic" in2="effect2_dropShadow" result="shape"/>
</filter>
</defs>
</svg>
